<?xml version="1.0" encoding="UTF-8" standalone="no"?>
<svg
   xmlns:dc="http://purl.org/dc/elements/1.1/"
   xmlns:cc="http://creativecommons.org/ns#"
   xmlns:rdf="http://www.w3.org/1999/02/22-rdf-syntax-ns#"
   xmlns:svg="http://www.w3.org/2000/svg"
   xmlns="http://www.w3.org/2000/svg"
   xmlns:sodipodi="http://sodipodi.sourceforge.net/DTD/sodipodi-0.dtd"
   xmlns:inkscape="http://www.inkscape.org/namespaces/inkscape"
   id="Layer_1"
   viewBox="0 0 300.67095 179.708"
   width="1286.8984"
   height="769.60602"
   version="1.1"
   sodipodi:docname="aws.svg"
   inkscape:version="0.92.5 (2060ec1f9f, 2020-04-08)">
  <metadata
     id="metadata19">
    <rdf:RDF>
      <cc:Work
         rdf:about="">
        <dc:format>image/svg+xml</dc:format>
        <dc:type
           rdf:resource="http://purl.org/dc/dcmitype/StillImage" />
      </cc:Work>
    </rdf:RDF>
  </metadata>
  <defs
     id="defs17" />
  <sodipodi:namedview
     pagecolor="#ffffff"
     bordercolor="#666666"
     borderopacity="1"
     objecttolerance="10"
     gridtolerance="10"
     guidetolerance="10"
     inkscape:pageopacity="0"
     inkscape:pageshadow="2"
     inkscape:window-width="1366"
     inkscape:window-height="704"
     id="namedview15"
     showgrid="false"
     inkscape:zoom="0.29257648"
     inkscape:cx="1416.6928"
     inkscape:cy="355.04762"
     inkscape:window-x="0"
     inkscape:window-y="27"
     inkscape:window-maximized="1"
     inkscape:current-layer="Layer_1" />
  <style
     id="style2">.st0{fill:#252f3e}.st1{fill:#f90}</style>
  <title
     id="title4">AS3Logo</title>
  <path
     class="st0"
     d="m 84.732017,65.259351 c -0.1,3 0.3,6 1.1,8.9 0.9,2.5 2,4.9 3.2,7.2 0.4,0.7 0.7,1.5 0.7,2.3 -0.1,1.2 -0.8,2.4 -1.9,3 l -6.3,4.2 c -0.8,0.5 -1.7,0.9 -2.6,0.9 -1.1,-0.1 -2.2,-0.6 -3,-1.4 -1.3,-1.4 -2.6,-3 -3.6,-4.7 -1,-1.7 -2,-3.6 -3.1,-5.9 -7.8,9.2 -17.6,13.8 -29.4,13.8 -8.4,0 -15.1,-2.4 -20,-7.2 -4.9,-4.8 -7.4,-11.2 -7.4,-19.2 0,-8.5 3,-15.4 9.1,-20.6 6.1,-5.2 14.2,-7.8 24.5,-7.8 3.5,0 7.1,0.3 10.6,0.8 3.7,0.5 7.5,1.3 11.5,2.2 v -7.3 c 0,-7.6 -1.6,-12.9 -4.7,-16 -3.1,-3.1 -8.6,-4.6 -16.3,-4.6 -3.6,0 -7.3,0.4 -10.8,1.3 -3.7,0.9 -7.3,2 -10.8,3.4 -1.1,0.5 -2.3,0.9 -3.5,1.3 -0.5,0.2 -1.1,0.3 -1.6,0.3 -1.4,0 -2.1,-1 -2.1,-3.1 v -4.9 c -0.1,-1.2 0.2,-2.4 0.7,-3.5 0.8,-0.9 1.7,-1.6 2.8,-2.1 4,-2 8.2,-3.5 12.6,-4.5 5.1,-1.29999999 10.4,-1.89999999 15.6,-1.89999999 11.9,0 20.6,2.69999999 26.2,8.09999999 5.6,5.4 8.3,13.6 8.3,24.6 v 32.4 z m -40.6,15.2 c 3.5,0 7,-0.6 10.3,-1.8 3.7,-1.3 6.9,-3.5 9.5,-6.4 1.6,-1.8 2.8,-4 3.4,-6.4 0.7,-2.8 1,-5.8 1,-8.7 v -4.2 c -3,-0.7 -6.1,-1.3 -9.2,-1.7 -3.1,-0.4 -6.3,-0.6 -9.4,-0.6 -6.7,0 -11.6,1.3 -14.9,4 -3.3,2.7 -4.9,6.5 -4.9,11.5 0,4.7 1.2,8.2 3.7,10.6 2.5,2.4 5.9,3.7 10.5,3.7 z m 80.300003,10.8 c -1.3,0.1 -2.7,-0.2 -3.8,-1 -1,-1.1 -1.8,-2.4 -2.1,-3.9 l -23.500003,-77.3 c -0.5,-1.3 -0.8,-2.6 -0.9,-4 -0.1,-1.2 0.7,-2.3 1.9,-2.5 h 10.400003 c 1.9,0 3.2,0.3 3.9,1 0.7,0.7 1.4,2 2,3.9 l 16.7,66.2 15.6,-66.2 c 0.5,-2 1.1,-3.3 1.9,-3.9 1.2,-0.7 2.6,-1.1 4,-1 h 8 c 1.9,0 3.2,0.3 4,1 1,1.1 1.7,2.4 1.9,3.9 l 15.8,67 17.3,-67 c 0.3,-1.5 1,-2.8 2,-3.9 1.2,-0.7 2.5,-1.1 3.9,-1 h 9.3 c 1.2,-0.2 2.3,0.7 2.5,1.9 v 0.6 c 0,0.5 -0.1,1.1 -0.2,1.6 -0.2,0.9 -0.4,1.7 -0.7,2.5 l -24.1,77.3 c -0.6,2 -1.3,3.3 -2.1,3.9 -1.1,0.7 -2.5,1.1 -3.8,1 h -8.6 c -1.9,0 -3.2,-0.3 -4,-1 -1,-1.1 -1.7,-2.5 -1.9,-4 l -15.5,-64.5 -15.4,64.4 c -0.2,1.5 -0.9,2.9 -1.9,4 -1.2,0.8 -2.6,1.1 -4,1 z m 128.5,2.7 c -5.2,0 -10.4,-0.6 -15.4,-1.8 -5,-1.2 -8.9,-2.5 -11.5,-4 -1.3,-0.6 -2.4,-1.6 -3.1,-2.8 -0.4,-0.9 -0.6,-1.8 -0.6,-2.8 v -5.1 c 0,-2.1 0.8,-3.1 2.3,-3.1 0.6,0 1.2,0.1 1.8,0.3 0.6,0.2 1.5,0.6 2.5,1 3.5,1.6 7.2,2.7 11,3.5 3.9,0.8 7.9,1.2 11.9,1.2 6.3,0 11.2,-1.1 14.6,-3.3 3.3,-2 5.3,-5.6 5.2,-9.5 0.1,-2.6 -0.9,-5.1 -2.7,-7 -1.8,-1.9 -5.2,-3.6 -10.1,-5.2 l -14.5,-4.5 c -7.3,-2.3 -12.7,-5.7 -16,-10.2 -3.2,-4.2 -5,-9.2 -5,-14.5 -0.1,-3.9 0.8,-7.7 2.7,-11.1 1.8,-3.2 4.2,-6 7.2,-8.2 3.1,-2.4 6.6,-4.1 10.4,-5.2 4.1,-1.19999999 8.3,-1.79999999 12.6,-1.69999999 2.2,0 4.5,0.1 6.7,0.4 2.3,0.3 4.4,0.69999999 6.5,1.09999999 2.1,0.4 3.9,1 5.7,1.6 1.5,0.5 2.9,1.1 4.2,1.8 1.2,0.6 2.2,1.4 3,2.5 0.7,1 1,2.1 0.9,3.3 v 4.7 c 0,2.1 -0.8,3.2 -2.3,3.2 -1.3,-0.2 -2.6,-0.6 -3.8,-1.2 -6,-2.7 -12.6,-4 -19.2,-3.9 -5.7,0 -10.2,0.9 -13.3,2.8 -3.1,1.9 -4.7,4.8 -4.7,8.9 -0.1,2.7 1,5.3 3,7.1 2,1.9 5.7,3.8 11,5.5 l 14.2,4.5 c 7.2,2.3 12.4,5.5 15.5,9.6 3.1,4 4.7,9 4.6,14 0.1,4 -0.8,8 -2.6,11.6 -1.8,3.4 -4.3,6.4 -7.3,8.8 -3.3,2.6 -7.1,4.5 -11.1,5.6 -4.6,1.4 -9.4,2.1 -14.3,2.1 z"
     id="path6"
     inkscape:connector-curvature="0"
     style="fill:#252f3e" />
  <path
     class="st1"
     d="m 271.83202,142.55935 c -32.9,24.3 -80.7,37.2 -121.8,37.2 -57.600003,0 -109.500003,-21.3 -148.7000029,-56.7 -3.1,-2.8 -0.3,-6.6 3.4,-4.4 42.3999999,24.6 94.6999999,39.5 148.8000029,39.5 39,-0.2 77.6,-8.1 113.5,-23.2 5.5,-2.5 10.2,3.6 4.8,7.6 z"
     id="path8"
     inkscape:connector-curvature="0"
     style="fill:#ff9900" />
  <path
     class="st1"
     d="m 285.53202,126.95935 c -4.2,-5.4 -27.8,-2.6 -38.5,-1.3 -3.2,0.4 -3.7,-2.4 -0.8,-4.5 18.8,-13.2 49.7,-9.4 53.3,-5 3.6,4.4 -1,35.4 -18.6,50.2 -2.7,2.3 -5.3,1.1 -4.1,-1.9 4,-9.9 12.9,-32.2 8.7,-37.5 z"
     id="path10"
     inkscape:connector-curvature="0"
     style="fill:#ff9900" />
</svg>
